# xmcd
#
# Track frame offsets:
#	150
#	18973
#	36125
#	53200
#	69161
#	80452
#	100666
#	116941
#	136486
#
# Disc length: 2613 seconds
#
# Revision: 1
# Processed by: cddbd v1.5.2PL0 Copyright (c) Steve Scherf et al.
# Submitted via: audiograbber 1.83.01
#
DISCID=700a3309
DTITLE=Nathan Hollywood - Red Night Falling
DYEAR=2008
DGENRE=Gothic Country
TTITLE0=The Pale Mare
TTITLE1=Gravedigger's Lullaby
TTITLE2=Mockingbird
TTITLE3=I Am The Holy Ghost
TTITLE4=Six Feet Deep In Love
TTITLE5=Down Here In The Rain
TTITLE6=Mark 15:34
TTITLE7=El Andariego
TTITLE8=The Story Of The Farmer Who Killed His Wife In His Sleep, Ate Her, Then
TTITLE8=Awoke
EXTD=
EXTT0=
EXTT1=
EXTT2=
EXTT3=
EXTT4=
EXTT5=
EXTT6=
EXTT7=
EXTT8=
PLAYORDER=
